<svg xmlns="http://www.w3.org/2000/svg" viewBox="0 0 100 112" width="100" height="112"><g class="nc-icon-wrapper"><title>244  sign peace lgbtq</title><g id="Scene"><circle class="cls-1" cx="50" cy="56" r="40" fill="#ebf3ff"/><ellipse class="cls-2" cx="50" cy="87.73" rx="15.52" ry="1.72" fill="#d6daff"/><path class="cls-2" d="M68.29 71.48a25.66 25.66 0 1 0-36.57 0l.14.15.15.15a25.61 25.61 0 0 0 36 0l.16-.15zm-.63-18A17.55 17.55 0 0 1 65 62.83l-11-11V36.3a17.69 17.69 0 0 1 13.66 17.2zM46 36.3v15.54l-11 11A17.65 17.65 0 0 1 46 36.3zm-5.33 32.19L50 59.16l9.33 9.33a17.63 17.63 0 0 1-18.66 0z" fill="#d6daff"/><path class="cls-3" d="M68.29 71.48a25.66 25.66 0 1 0-36.57 0l.14.15.15.15a25.61 25.61 0 0 0 36 0l.16-.15zm-.63-18A17.55 17.55 0 0 1 65 62.83l-11-11V36.3a17.69 17.69 0 0 1 13.66 17.2zM46 36.3v15.54l-11 11A17.65 17.65 0 0 1 46 36.3zm-5.33 32.19L50 59.16l9.33 9.33a17.63 17.63 0 0 1-18.66 0z" fill="none" stroke="#4550e5" stroke-linecap="round" stroke-linejoin="round"/></g></g></svg>