<svg xmlns="http://www.w3.org/2000/svg" xmlns:xlink="http://www.w3.org/1999/xlink" x="0px" y="0px" viewBox="0 0 48 48" width="48" height="48"><title>calendar grid 58</title><rect class="nucleo-frame" x="0" y="0" width="48" height="48" rx="39" ry="39" stroke="none" fill="#ebf3ff"/><g class="nc-icon-wrapper" transform="translate(9.600000000000001 9.600000000000001) scale(0.6)" stroke-linecap="square" stroke-linejoin="miter" stroke-width="3" fill="#707ef9" stroke="#707ef9"><polyline fill="none" stroke="#707ef9" stroke-miterlimit="10" points="46,16 46,46 2,46 2,16 "/> <rect x="2" y="6" fill="none" stroke="#707ef9" stroke-miterlimit="10" width="44" height="10"/> <line data-color="color-2" fill="none" stroke-miterlimit="10" x1="24" y1="2" x2="24" y2="10"/> <line data-color="color-2" fill="none" stroke-miterlimit="10" x1="12" y1="2" x2="12" y2="10"/> <line data-color="color-2" fill="none" stroke-miterlimit="10" x1="36" y1="2" x2="36" y2="10"/> <polygon data-color="color-2" fill="none" stroke-miterlimit="10" points=" 28,22 20,22 12,22 12,30 12,38 20,38 28,38 28,30 36,30 36,22 "/> <line data-color="color-2" fill="none" stroke-miterlimit="10" x1="20" y1="22" x2="20" y2="38"/> <polyline data-color="color-2" fill="none" stroke-miterlimit="10" points=" 28,22 28,30 12,30 "/></g></svg>