<svg xmlns="http://www.w3.org/2000/svg" xmlns:xlink="http://www.w3.org/1999/xlink" x="0px" y="0px" viewBox="0 0 48 48" width="48" height="48"><title>diet plan</title><g class="nc-icon-wrapper"><path d="M2,41a2,2,0,0,0,2,2H41a5,5,0,0,0,5-5V15H2Z" fill="#e6e6e6"/> <path d="M44,5H4A2,2,0,0,0,2,7v8H46V7A2,2,0,0,0,44,5Z" fill="#badefc"/> <path d="M10,10V2a1,1,0,0,1,1-1h2a1,1,0,0,1,1,1v8a1,1,0,0,1-1,1H11A1,1,0,0,1,10,10Z" fill="#335262"/> <path d="M34,10V2a1,1,0,0,1,1-1h2a1,1,0,0,1,1,1v8a1,1,0,0,1-1,1H35A1,1,0,0,1,34,10Z" fill="#335262"/> <path d="M37,46.134l2.168.676a4,4,0,0,0,4.973-2.326l2.5-7c1.75-4.911-3.1-9.647-8.418-8.225L37,29.582l-1.218-.326c-5.321-1.422-10.168,3.314-8.418,8.225l2.5,7a4,4,0,0,0,4.973,2.326Z" fill="#e86c60"/> <path d="M43,21h0v1a5,5,0,0,1-5,5h0V26A5,5,0,0,1,43,21Z" fill="#72c472"/></g></svg>