<svg xmlns="http://www.w3.org/2000/svg" xmlns:xlink="http://www.w3.org/1999/xlink" x="0px" y="0px" width="32px" height="32px" viewBox="0 0 32 32"><g stroke-width="2" transform="translate(0, 0)"><path data-cap="butt" fill="none" stroke="#444444" stroke-width="2" stroke-miterlimit="10" d="M26.851,18.719l1.752-1.752
	c3.195-3.195,3.195-8.376,0-11.571c-3.195-3.195-8.376-3.195-11.571,0C16.639,5.79,16.297,6.215,16,6.661
	c-0.297-0.446-0.639-0.871-1.033-1.264c-3.195-3.195-8.376-3.195-11.571,0c-3.195,3.195-3.195,8.376,0,11.571L16,29.571l2.719-2.72" stroke-linejoin="miter" stroke-linecap="butt"></path>
<circle data-color="color-2" fill="none" stroke="#b718b8" stroke-width="2" stroke-linecap="square" stroke-miterlimit="10" cx="24" cy="24" r="6" stroke-linejoin="miter"></circle>
<line data-color="color-2" fill="none" stroke="#b718b8" stroke-width="2" stroke-linecap="square" stroke-miterlimit="10" x1="24" y1="22" x2="24" y2="26" stroke-linejoin="miter"></line>
<line data-color="color-2" fill="none" stroke="#b718b8" stroke-width="2" stroke-linecap="square" stroke-miterlimit="10" x1="22" y1="24" x2="26" y2="24" stroke-linejoin="miter"></line></g></svg>