<svg xmlns="http://www.w3.org/2000/svg" xmlns:xlink="http://www.w3.org/1999/xlink" x="0px" y="0px" width="48px" height="48px" viewBox="0 0 48 48"><g stroke-width="2" transform="translate(0, 0)"><path data-color="color-2" fill="none" stroke="#0087c1" stroke-width="2" stroke-linecap="square" stroke-miterlimit="10" d="M31,14v7
	c0,1.657-1.343,3-3,3h-4c-1.657,0-3-1.343-3-3v-7" stroke-linejoin="miter"></path>
<line data-color="color-2" fill="none" stroke="#0087c1" stroke-width="2" stroke-linecap="square" stroke-miterlimit="10" x1="26" y1="19" x2="26" y2="14" stroke-linejoin="miter"></line>
<line data-color="color-2" fill="none" stroke="#0087c1" stroke-width="2" stroke-linecap="square" stroke-miterlimit="10" x1="26" y1="24" x2="26" y2="35" stroke-linejoin="miter"></line>
<line fill="none" stroke="#0087c1" stroke-width="2" stroke-linecap="square" stroke-miterlimit="10" x1="46" y1="10" x2="46" y2="16" stroke-linejoin="miter"></line>
<line fill="none" stroke="#0087c1" stroke-width="2" stroke-linecap="square" stroke-miterlimit="10" x1="46" y1="23" x2="46" y2="29" stroke-linejoin="miter"></line>
<path fill="none" stroke="#0087c1" stroke-width="2" stroke-linecap="square" stroke-miterlimit="10" d="M5,46V2h30
	c3.314,0,6,2.686,6,6v32c0,3.314-2.686,6-6,6H5z" stroke-linejoin="miter"></path>
<line data-cap="butt" fill="none" stroke="#0087c1" stroke-width="2" stroke-miterlimit="10" x1="11" y1="2" x2="11" y2="46" stroke-linecap="butt" stroke-linejoin="miter"></line></g></svg>