<svg xmlns="http://www.w3.org/2000/svg" viewBox="0 0 48 48" width="48" height="48"><title>workout plan</title><rect class="nucleo-frame" x="0" y="0" width="48" height="48" rx="39" ry="39" stroke="none" fill="#ebf3ff"/><g class="nc-icon-wrapper" transform="translate(9.600000000000001 9.600000000000001) scale(0.6)" stroke-linecap="square" stroke-linejoin="miter" stroke-width="3" fill="#707ef9" stroke="#707ef9"><line x1="45" y1="15.988" x2="3" y2="15.988" fill="none" stroke="#707ef9" stroke-miterlimit="10"/> <path d="M13,41.988H6a3,3,0,0,1-3-3v-30a3,3,0,0,1,3-3H42a3,3,0,0,1,3,3V25" fill="none" stroke="#707ef9" stroke-miterlimit="10"/> <line x1="13" y1="1.988" x2="13" y2="9.988" fill="none" stroke="#707ef9" stroke-miterlimit="10"/> <line x1="35" y1="1.988" x2="35" y2="9.988" fill="none" stroke="#707ef9" stroke-miterlimit="10"/> <line x1="26" y1="38" x2="38" y2="38" fill="none" stroke-miterlimit="10" data-cap="butt" data-color="color-2" stroke-linecap="butt"/> <line x1="21" y1="38" x2="18" y2="38" fill="none" stroke-miterlimit="10" data-color="color-2"/> <line x1="46" y1="38" x2="43" y2="38" fill="none" stroke-miterlimit="10" data-color="color-2"/> <rect x="21" y="30" width="5" height="16" rx="2.5" ry="2.5" fill="none" stroke-miterlimit="10" data-color="color-2"/> <rect x="38" y="30" width="5" height="16" rx="2.5" ry="2.5" fill="none" stroke-miterlimit="10" data-color="color-2"/></g></svg>