<svg xmlns="http://www.w3.org/2000/svg" width="24" height="24" viewBox="0 0 24 24"><g><rect class="nc-transparent-rect" x="0" y="0" width="24" height="24" rx="0" ry="0" fill="none" stroke="none"></rect><g class="nc-icon-wrapper" stroke-linecap="square" stroke-linejoin="miter" stroke-width="2" fill="#111111" stroke="#111111"><path fill="none" stroke="#111111" stroke-miterlimit="10" d="M15,22H1v-2.313 c0-1.213,0.725-2.307,1.846-2.772C3.981,16.445,5.67,16,8,16s4.019,0.445,5.154,0.916C14.275,17.38,15,18.474,15,19.687V22z"></path> <circle fill="none" stroke="#111111" stroke-miterlimit="10" cx="8" cy="9" r="4"></circle> <path data-color="color-2" fill="none" stroke-miterlimit="10" d=" M17.001,6.355C17.623,7.06,18,7.986,18,9c0,1.014-0.378,1.94-1,2.646"></path> <path data-color="color-2" fill="none" stroke-miterlimit="10" d=" M20.001,2.293C21.842,3.941,23,6.335,23,9c0,2.665-1.158,5.06-2.999,6.708"></path></g></g></svg>